# xmcd
#
# Track frame offsets: 
#        150
#        23657
#        39331
#        60815
#        81227
#        106913
#        119218
#        145826
#        168143
#        191077
#        207425
#
# Disc length: 2992 seconds
#
# Revision: 1
# Processed by: cddbd v1.5.2PL0 Copyright (c) Steve Scherf et al.
# Submitted via: ExactAudioCopyFreeDBPlugin 1.0
#
DISCID=8f0bae0b
DTITLE=Natalie Dessay and Paris Mozart Orchestra - Pictures of America
DYEAR=2016
DGENRE=Jazz
TTITLE0=On a Clear Day
TTITLE1=I Feel Pretty
TTITLE2=I'm a Fool to Want You
TTITLE3=Send in the Clowns
TTITLE4=Detour Ahead
TTITLE5=Something's Coming
TTITLE6=Autour de Minuit
TTITLE7=I Keep Going Back to Joe's | In my Solitude
TTITLE8=A Place That You Want to Call Home
TTITLE9=The Two Lonely People
TTITLE10=There's no Business Like Show Business
EXTD=YEAR: 2016
EXTT0=
EXTT1=
EXTT2=
EXTT3=
EXTT4=
EXTT5=
EXTT6=
EXTT7=
EXTT8=
EXTT9=
EXTT10=
PLAYORDER=
